<svg xmlns="http://www.w3.org/2000/svg" width="59.293" height="59.293" viewBox="0 0 59.293 59.293"><defs><style>.a{fill:#c9ffe9;fill-rule:evenodd}.b{fill:#3bcf93}</style></defs><path class="a" d="M12.811 23.001l-3.256.981a2.592 2.592 0 0 0 1.5 4.963l1.783-.535 3.256-.981h.01a2.594 2.594 0 0 0-1.507-4.963z"/><path class="a" d="M11.315 18.033l-3.384 1.021-1.654.5a2.594 2.594 0 0 0 1.5 4.967l1.783-.535 3.256-.981a2.594 2.594 0 0 0-1.5-4.967z"/><path class="a" d="M34.558 22.258a5.9 5.9 0 0 1-4.441-2.114l-2.8-2.8c-1.54-1.536-1.428-1.586-3.512-2.209l-6.667-2a3.088 3.088 0 0 1 1.083-6.04L12.28 1.158 1.158 12.28l6.772 6.778 3.384-1.021a2.594 2.594 0 0 1 1.5 4.967l1.783-.538a2.594 2.594 0 0 1 1.507 4.963l1.773-.535a2.593 2.593 0 0 1 1.49 4.964l1.783-.538a2.594 2.594 0 1 1 1.5 4.967l-.325.1a12.329 12.329 0 0 1 .594 4.244l-.151 3.391-.079 1.864a2.593 2.593 0 0 0 5.18.236l-.082 1.851a2.594 2.594 0 0 0 5.183.227l-.085 1.858a2.594 2.594 0 1 0 5.183.227l-.082 1.858a2.591 2.591 0 0 0 4.678 1.648 2.575 2.575 0 0 0 .5-1.421l.23-5.256.23-7.632c.121-4.084.8-4.32 8.561 1.586A21.335 21.335 0 0 0 38.58 23.017a12.838 12.838 0 0 0-4.022-.759z"/><path class="a" d="M30.932 12.674c-1.067-1.444-1.366-2.255-3.247-2.82l-8.768-2.626a3.177 3.177 0 0 0-.689-.125 3.088 3.088 0 0 0-1.083 6.04l6.667 2c2.085.624 1.973.673 3.512 2.209l2.8 2.8a5.9 5.9 0 0 0 4.441 2.114 12.835 12.835 0 0 1 4.018.755zm21.255 28.391c-7.764-5.905-8.44-5.669-8.561-1.585l-.23 7.632-.23 5.256a2.575 2.575 0 0 1-.5 1.421l4.346 4.346L58.137 47.01zM17.874 26.89l-1.773.531h-.01l-3.256.981a2.592 2.592 0 1 0 1.494 4.963l1.783-.535 3.256-.981a2.593 2.593 0 0 0-1.494-4.967zm3.276 4.43l-1.783.538-3.256.981a2.594 2.594 0 0 0 1.5 4.967l4.714-1.421.325-.1a2.594 2.594 0 1 0-1.5-4.967z"/><path class="b" d="M58.954 46.191L53.3 40.535a22.683 22.683 0 0 0-2.622-8.365 1.158 1.158 0 0 0-2.035 1.107 20.289 20.289 0 0 1 1.953 5.148c-3.717-2.715-5.38-3.5-6.684-2.876-1.343.641-1.4 2.446-1.439 3.9l-.23 7.625-.229 5.247a1.434 1.434 0 1 1-2.866-.125l.08-1.823v-.052l.148-3.38a1.158 1.158 0 0 0-2.314-.1l-.152 3.408a1.436 1.436 0 0 1-2.868-.142l.08-1.823v-.052l.148-3.38a1.158 1.158 0 0 0-2.314-.1l-.149 3.415a1.436 1.436 0 0 1-2.868-.143l.08-1.833v-.042l.148-3.384a1.158 1.158 0 0 0-2.314-.1l-.149 3.411a1.439 1.439 0 0 1-1.5 1.358 1.442 1.442 0 0 1-1.369-1.5l.079-1.862.151-3.393a13.136 13.136 0 0 0-.358-3.593 3.75 3.75 0 0 0-1.41-7.011 3.74 3.74 0 0 0-1.909-4 3.76 3.76 0 0 0-1.37-.428 3.758 3.758 0 0 0-3.278-4.428 3.754 3.754 0 0 0-4.766-4.292l-2.723.82L2.8 12.28l9.48-9.481 3.685 3.683a4.246 4.246 0 0 0 .847 7.774l6.668 2a4.09 4.09 0 0 1 2.611 1.5c.125.126.262.265.415.417l2.8 2.8a7.029 7.029 0 0 0 5.247 2.454 14.437 14.437 0 0 1 7.647 2.721 1.158 1.158 0 1 0 1.3-1.915 19.687 19.687 0 0 0-4.2-2.186l-7.44-10.061a23.52 23.52 0 0 1-.434-.606 5.551 5.551 0 0 0-3.412-2.635l-8.763-2.626a4.259 4.259 0 0 0-.483-.114L13.1.339a1.158 1.158 0 0 0-1.638 0L.34 11.461a1.158 1.158 0 0 0 0 1.638l5.407 5.409a3.752 3.752 0 0 0 .874 7.255 3.747 3.747 0 0 0 1.912 4 3.756 3.756 0 0 0 1.366.425 3.741 3.741 0 0 0 3.278 4.426 3.75 3.75 0 0 0 4.765 4.3l3.567-1.076a10.733 10.733 0 0 1 .25 2.739l-.151 3.394-.079 1.863a3.758 3.758 0 0 0 3.581 3.913h.166a3.725 3.725 0 0 0 1.584-.353 3.768 3.768 0 0 0 3.351 2.433h.167a3.717 3.717 0 0 0 1.583-.353 3.758 3.758 0 0 0 3.351 2.437h.166a3.726 3.726 0 0 0 1.585-.353 3.758 3.758 0 0 0 3.351 2.441h.167a3.706 3.706 0 0 0 2.048-.615l3.562 3.562a1.158 1.158 0 0 0 1.638 0l11.125-11.117a1.158 1.158 0 0 0 0-1.638zM16.179 9.632a1.94 1.94 0 0 1 2.406-1.3l8.767 2.626a3.354 3.354 0 0 1 2.183 1.75c.137.194.292.414.465.649l5.784 7.822a12.08 12.08 0 0 0-1.207-.08 4.752 4.752 0 0 1-3.637-1.77l-2.8-2.8-.406-.408a6.111 6.111 0 0 0-3.592-2.09l-6.669-2a1.939 1.939 0 0 1-1.3-2.4zM7.44 23.408a1.436 1.436 0 0 1-.83-2.749l5.038-1.516a1.426 1.426 0 0 1 .411-.061 1.441 1.441 0 0 1 .682.173 1.419 1.419 0 0 1 .7.848 1.438 1.438 0 0 1-.961 1.789zm3.277 4.429a1.434 1.434 0 0 1-.828-2.746l.027-.009 3.23-.972 1.78-.538a1.435 1.435 0 0 1 .847 2.743l-3.273.984zm3.276 4.428a1.434 1.434 0 1 1-.824-2.746l5.038-1.52a1.421 1.421 0 0 1 .409-.06 1.439 1.439 0 0 1 .682.174 1.435 1.435 0 0 1-.265 2.635zm9.168 2.215a1.424 1.424 0 0 1-.849.7l-5.037 1.519a1.436 1.436 0 0 1-.83-2.748l.026-.009 5.013-1.511a1.442 1.442 0 0 1 1.791.961 1.425 1.425 0 0 1-.113 1.092zm23.85 22.019l-2.923-2.923a3.747 3.747 0 0 0 .236-1.156l.23-5.256v-.016l.23-7.633a8.029 8.029 0 0 1 .181-1.825 6.6 6.6 0 0 1 1.71.853c1.019.634 2.411 1.625 4.48 3.193a4.947 4.947 0 0 1 .509.444l4.836 4.83z"/><path class="b" d="M45.84 29.323a1.158 1.158 0 1 0 0-1.641 1.151 1.151 0 0 0 0 1.641z"/></svg>