<svg xmlns="http://www.w3.org/2000/svg" width="48.563" height="59.871" viewBox="0 0 48.563 59.871"><defs><style>.a{fill:#4adea2}.b{fill:#3bcf93}.c{fill:#c9ffe9}.d{fill:#a6f2d3}.e{fill:#9ee5c8}.f{fill:#75e2b5}</style></defs><path class="a" d="M27.303 58.657v-3.134h-6.1v3.136a1.217 1.217 0 0 0 1.214 1.214h3.675a1.217 1.217 0 0 0 1.211-1.216z"/><path class="b" d="M24.252 58.657v-3.134h-3.051v3.136a1.217 1.217 0 0 0 1.214 1.214h3.051a1.217 1.217 0 0 1-1.214-1.216z"/><path class="c" d="M17.649 42.901v4.985h13.205v-4.9a5.122 5.122 0 0 1 2.411-4.335 16.974 16.974 0 1 0-17.934.058 4.929 4.929 0 0 1 2.318 4.192z"/><path class="d" d="M17.774 38.705a16.975 16.975 0 0 1 7.7-31.372 17.05 17.05 0 0 0-1.112-.044 16.976 16.976 0 0 0-9.03 31.417 4.93 4.93 0 0 1 2.318 4.2v4.985h2.443v-4.989a4.93 4.93 0 0 0-2.319-4.197z"/><path class="c" d="M30.988 51.645H17.514a1.427 1.427 0 0 1-1.423-1.423v-1.268a1.427 1.427 0 0 1 1.423-1.423h13.472a1.427 1.427 0 0 1 1.428 1.423v1.268a1.427 1.427 0 0 1-1.426 1.423z"/><path class="c" d="M30.988 55.758H17.514a1.427 1.427 0 0 1-1.423-1.423v-1.268a1.427 1.427 0 0 1 1.423-1.423h13.472a1.427 1.427 0 0 1 1.423 1.423v1.268a1.427 1.427 0 0 1-1.421 1.423z"/><path class="d" d="M30.988 49.589H17.514a1.427 1.427 0 0 1-1.366-1.028 1.41 1.41 0 0 0-.057.394v1.268a1.427 1.427 0 0 0 1.423 1.423h13.472a1.427 1.427 0 0 0 1.423-1.423v-1.268a1.405 1.405 0 0 0-.057-.394 1.427 1.427 0 0 1-1.364 1.028zm0 4.112H17.514a1.427 1.427 0 0 1-1.366-1.028 1.41 1.41 0 0 0-.057.394v1.268a1.427 1.427 0 0 0 1.423 1.423h13.472a1.427 1.427 0 0 0 1.423-1.423v-1.268a1.405 1.405 0 0 0-.057-.394 1.427 1.427 0 0 1-1.364 1.028z"/><path class="e" d="M35.951 22.385H32.58a8.5 8.5 0 0 0-1.056-2.551l2.383-2.383a.371.371 0 0 0 0-.524l-2.241-2.241a.371.371 0 0 0-.525 0l-2.383 2.383a8.5 8.5 0 0 0-2.551-1.056v-3.371a.371.371 0 0 0-.371-.371h-3.169a.371.371 0 0 0-.371.371v3.371a8.505 8.505 0 0 0-2.551 1.056l-2.383-2.383a.371.371 0 0 0-.525 0l-2.241 2.241a.371.371 0 0 0 0 .524l2.383 2.383a8.5 8.5 0 0 0-1.056 2.551h-3.372a.371.371 0 0 0-.371.371v3.169a.371.371 0 0 0 .371.371h3.371a8.5 8.5 0 0 0 1.056 2.551l-2.383 2.383a.371.371 0 0 0 0 .524l2.241 2.241a.371.371 0 0 0 .525 0l2.383-2.383a8.5 8.5 0 0 0 2.551 1.056v3.371a.371.371 0 0 0 .371.371h3.169a.371.371 0 0 0 .371-.371v-3.371a8.5 8.5 0 0 0 2.551-1.056l2.383 2.383a.371.371 0 0 0 .525 0l2.241-2.241a.371.371 0 0 0 0-.524l-2.383-2.383a8.5 8.5 0 0 0 1.056-2.551h3.372a.371.371 0 0 0 .371-.371v-3.169a.371.371 0 0 0-.371-.371zm-11.7 5.83a3.874 3.874 0 1 1 3.874-3.874 3.874 3.874 0 0 1-3.874 3.874z"/><path class="f" d="M16.981 19.834a8.5 8.5 0 0 0-1.056 2.551h1.99a.493.493 0 0 0 .474-.361 8.493 8.493 0 0 1 .841-1.986.307.307 0 0 0-.046-.373l-2.215-2.215a.371.371 0 0 1 0-.524l1.318-1.318-.923-.923a.371.371 0 0 0-.525 0l-2.241 2.241a.371.371 0 0 0 0 .524zm-2.427 6.091v-3.173a.371.371 0 0 1 .371-.371h-2.371a.371.371 0 0 0-.371.371v3.169a.371.371 0 0 0 .371.371h2.371a.371.371 0 0 1-.371-.367zm2.415 5.83a.371.371 0 0 1 0-.525l2.174-2.174a.376.376 0 0 0 .063-.452 8.5 8.5 0 0 1-.844-2.041.361.361 0 0 0-.349-.266h-2.089a8.5 8.5 0 0 0 1.056 2.551l-2.383 2.383a.371.371 0 0 0 0 .525l2.241 2.241a.371.371 0 0 0 .525 0l.923-.923zm7.7-19.113a.371.371 0 0 1 .371-.371h-2.371a.371.371 0 0 0-.371.371v3.371h1.845a.576.576 0 0 0 .527-.579v-2.791zm0 23.397v-3.005a.365.365 0 0 0-.365-.365h-2.006v3.371a.371.371 0 0 0 .371.371h2.371a.371.371 0 0 1-.371-.372z"/><path class="b" d="M19.518 24.282a4.764 4.764 0 1 0 4.764-4.764 4.769 4.769 0 0 0-4.764 4.764zm7.749 0a2.985 2.985 0 1 1-2.985-2.985 2.989 2.989 0 0 1 2.985 2.985zm-23.428-.89H.889a.889.889 0 1 0 0 1.778h2.95a.889.889 0 0 0 0-1.778zm43.835 0h-2.953a.889.889 0 0 0 0 1.778h2.95a.889.889 0 0 0 0-1.778zM9.198 38.107l-2.089 2.082a.89.89 0 0 0 1.258 1.258l2.086-2.086a.89.89 0 0 0-1.258-1.258zM39.365 10.46l2.086-2.086a.89.89 0 0 0-1.258-1.258l-2.086 2.086a.89.89 0 1 0 1.258 1.258zM24.281 4.728a.889.889 0 0 0 .889-.889V.889a.889.889 0 1 0-1.778 0v2.95a.889.889 0 0 0 .889.889zm15.084 33.379a.89.89 0 1 0-1.258 1.258l2.086 2.086a.89.89 0 0 0 1.257-1.262zM9.198 10.46a.89.89 0 1 0 1.258-1.258L8.37 7.116A.89.89 0 1 0 7.109 8.37z"/><path class="b" d="M26.463 6.473a.889.889 0 1 0-.215 1.765 16.016 16.016 0 0 1 14.006 14.071.889.889 0 0 0 .882.786.9.9 0 0 0 .1-.006.889.889 0 0 0 .78-.987A17.883 17.883 0 0 0 26.463 6.473zm4.554 50.115a2.315 2.315 0 0 0 2.312-2.312v-1.267a2.3 2.3 0 0 0-.493-1.423 2.3 2.3 0 0 0 .493-1.423v-1.268a2.314 2.314 0 0 0-1.556-2.182v-3.789a4.213 4.213 0 0 1 1.994-3.582A17.8 17.8 0 0 0 42 26.468a.889.889 0 1 0-1.764-.223 16.023 16.023 0 0 1-7.415 11.591 5.982 5.982 0 0 0-2.827 5.088v3.659H18.568v-3.74a5.855 5.855 0 0 0-2.74-4.953 16.086 16.086 0 0 1 6.487-29.65.89.89 0 1 0-.219-1.765 17.863 17.863 0 0 0-7.2 32.927 4.065 4.065 0 0 1 1.9 3.44v3.87a2.314 2.314 0 0 0-1.556 2.182v1.268a2.3 2.3 0 0 0 .493 1.423 2.3 2.3 0 0 0-.493 1.423v1.267a2.315 2.315 0 0 0 2.312 2.312h13.472m.533-2.312a.541.541 0 0 1-.534.534H17.545a.541.541 0 0 1-.534-.534v-1.267a.541.541 0 0 1 .534-.534h13.472a.541.541 0 0 1 .534.534zm0-4.113a.541.541 0 0 1-.534.534H17.545a.541.541 0 0 1-.534-.534v-1.267a.541.541 0 0 1 .534-.534h13.472a.541.541 0 0 1 .534.534z"/></svg>