<svg xmlns="http://www.w3.org/2000/svg" width="59.71" height="60" viewBox="0 0 59.71 60"><defs><style>.a{fill:#c9ffe9}.b{fill:#3bcf93}</style></defs><path class="a" d="M40.71 29v3l-2 2h-2v-4l-2-2v-2h6zm2 16v4l-2 2v4l-3 3v.81a22.8 22.8 0 0 1-3 .19c-.34 0-.67-.01-1-.02V55l-2-2v-4h-4l-2-2v-3l3-3 1-1h8z"/><path class="a" d="M58.71 35a23.92 23.92 0 0 1-5.6 15.4l-3.4-3.4v-5l-4-4v-4l2-2v-6l-5-5h-5l-4-4v-5.98c.33-.01.66-.02 1-.02a24.006 24.006 0 0 1 24 24zM15.67 22.47a.977.977 0 0 0 .26 1.34l4.17 3.03-1.6 4.9a.851.851 0 0 0-.05.26h-.74v3l5 5v3l-3 3v3l-2.46 2.46A23.935 23.935 0 0 1 10.71 35c0-.65.03-1.29.08-1.92a23.665 23.665 0 0 1 3.87-11.26z"/><path class="a" d="M31.9 22h-5.15l-.01-.03-1.58-4.87a1 1 0 0 0-1.9 0L21.67 22h-5.15a1 1 0 0 0-.59 1.81l4.17 3.03-1.6 4.9a.851.851 0 0 0-.05.26 1 1 0 0 0 1.59.85l4.17-3.02 4.17 3.02a1 1 0 0 0 1.54-1.11l-1.6-4.9 4.17-3.03A1 1 0 0 0 31.9 22z"/><path class="b" d="M34.71 10a24.842 24.842 0 0 0-10.339 2.247l-7.954-7.954-1.414 1.414 7.492 7.493a25.176 25.176 0 0 0-4.731 3.441L6.417 5.293 5.003 6.707 16.35 18.054a25.176 25.176 0 0 0-3.44 4.731l-7.493-7.492-1.414 1.414 7.954 7.954a24.783 24.783 0 0 0-1.909 6.263l-4.631-4.631-1.414 1.414 5.759 5.759A25.132 25.132 0 0 0 9.71 35a25 25 0 1 0 25-25zm23 25a22.879 22.879 0 0 1-4.689 13.9l-2.311-2.314V42a1 1 0 0 0-.293-.707l-3.707-3.707v-3.172l1.707-1.707A1 1 0 0 0 48.71 32v-6a1 1 0 0 0-.293-.707l-5-5A1 1 0 0 0 42.71 20h-4.586l-3.414-3.414V12a23.026 23.026 0 0 1 23 23zM34.417 54.293l-1.707-1.707V49a1 1 0 0 0-1-1h-3.586l-1.414-1.414v-2.172L30.124 41h7.172l4.414 4.414v3.172l-1.707 1.707a1 1 0 0 0-.293.707v3.586l-2.707 2.707a.986.986 0 0 0-.274.613c-.666.058-1.338.094-2.019.094v-3a1 1 0 0 0-.293-.707zm5.251 3.163l1.749-1.749A1 1 0 0 0 41.71 55v-3.586l1.707-1.707A1 1 0 0 0 43.71 49v-4a1 1 0 0 0-.293-.707l-5-5A1 1 0 0 0 37.71 39h-8a1 1 0 0 0-.707.293l-4 4a1 1 0 0 0-.293.707v3a1 1 0 0 0 .293.707l2 2a1 1 0 0 0 .707.293h3v3a1 1 0 0 0 .293.707l1.707 1.707v2.494a22.927 22.927 0 0 1-14.044-6.45l1.751-1.751A1 1 0 0 0 20.71 49v-2.586l2.707-2.707A1 1 0 0 0 23.71 43v-3a1 1 0 0 0-.293-.707l-5-5-1.414 1.414 4.707 4.707v2.172l-2.707 2.707a1 1 0 0 0-.293.707v2.586L17.296 50a22.929 22.929 0 0 1-2.629-26.262 1.983 1.983 0 0 0 .673.879l3.58 2.6-1.368 4.208a2 2 0 0 0 3.078 2.236l3.58-2.6 3.58 2.6a2 2 0 0 0 3.078-2.235L29.5 27.219l3.58-2.6A2 2 0 0 0 31.904 21H27.48l-1.37-4.208a2 2 0 0 0-3.8 0L20.94 21h-4.424c-.015 0-.027.006-.041.006a22.987 22.987 0 0 1 16.235-8.914V17a1 1 0 0 0 .293.707l4 4a1 1 0 0 0 .707.293h4.586l4.414 4.414v5.172l-1.707 1.707a1 1 0 0 0-.293.707v4a1 1 0 0 0 .293.707l3.707 3.707V47a1 1 0 0 0 .293.707l2.736 2.737a23.012 23.012 0 0 1-12.071 7.012zm-12.3-30.31l1.592 4.9-4.167-3.028a1 1 0 0 0-1.176 0l-4.167 3.027 1.592-4.9a1 1 0 0 0-.363-1.118L16.516 23h5.151a1 1 0 0 0 .951-.691L24.21 17.4v.012l1.592 4.9a1 1 0 0 0 .951.691h5.151l-4.168 3.028a1 1 0 0 0-.363 1.115z"/><path class="b" d="M40.71 25h-6a1 1 0 0 0-1 1v2a1 1 0 0 0 .293.707l1.707 1.707V34a1 1 0 0 0 1 1h2a1 1 0 0 0 .707-.293l2-2A1 1 0 0 0 41.71 32v-6a1 1 0 0 0-1-1zm-1 6.586L38.296 33h-.586v-3a1 1 0 0 0-.293-.707l-1.707-1.707V27h4zM.003 1.707L1.417.293l3 3-1.414 1.415zm11 0L12.417.293l2 2-1.414 1.414zm-11 11l1.414-1.414 2 2-1.414 1.414zm0 11.001l1.414-1.415 2 2-1.414 1.414zM52.71 8h2V6h2V4h-2V2h-2v2h-2v2h2zm-50 42h2v2h-2zm10 6h2v2h-2zm-10-18h2v2h-2zm35-38h2v2h-2zm18 14h2v2h-2zm-26-9h2v2h-2z"/></svg>